<svg width="18" height="16" viewBox="0 0 18 16" fill="none" xmlns="http://www.w3.org/2000/svg">
<path fill-rule="evenodd" clip-rule="evenodd" d="M7.27087 15.3043C6.70413 15.468 6.09086 15.5508 5.44738 15.5508C4.73079 15.5508 4.042 15.4686 3.39973 15.3061C2.15688 14.9925 1.23848 14.398 0.809499 13.6318C0.624612 13.3007 0.53096 12.9479 0.53096 12.5823C0.53096 12.2059 0.620986 11.824 0.798623 11.4458C1.47956 9.99451 3.27466 9.01811 5.2631 9.01811H5.31989C5.15857 8.73353 5.08063 8.43868 5.08063 8.12872C5.08063 7.97465 5.10117 7.81756 5.14225 7.65744C3.05654 7.61031 1.49588 6.08288 1.49588 4.06907C1.49588 2.64737 2.63239 1.26193 4.2577 0.702436C4.74408 0.534467 5.24014 0.448669 5.72773 0.448669H10.188C10.3396 0.448669 10.4744 0.547155 10.5215 0.69156C10.5686 0.835361 10.5167 0.993663 10.394 1.08248L9.39646 1.80451C9.33665 1.8468 9.26475 1.86976 9.19043 1.86976H8.83334C9.29435 2.42261 9.56443 3.2111 9.56443 4.09626C9.56443 5.07326 9.07019 5.99709 8.17053 6.70098C7.4757 7.24235 7.44851 7.39159 7.44851 7.70034C7.45697 7.87012 7.94093 8.42418 8.47505 8.80181C9.71911 9.68153 10.1819 10.5449 10.1819 11.9854C10.1813 13.4904 9.03878 14.7907 7.27087 15.3043ZM17.3436 7.65382C17.3436 7.84716 17.1859 8.00426 16.9931 8.00426H14.4585V10.5401C14.4585 10.7335 14.3008 10.8905 14.1093 10.8905H13.3872C13.1927 10.8905 13.0356 10.7335 13.0356 10.5401V8.00426H10.5028C10.3094 8.00426 10.1523 7.84837 10.1523 7.65382V6.933C10.1523 6.73965 10.3094 6.58135 10.5028 6.58135H13.0356V4.04792C13.0356 3.85397 13.1927 3.69748 13.3872 3.69748H14.1093C14.3008 3.69748 14.4585 3.85397 14.4585 4.04792V6.58135H16.9925C17.1853 6.58135 17.343 6.73845 17.343 6.93179L17.3436 7.65382ZM6.99059 10.4857C6.93401 10.4481 6.87661 10.4087 6.81793 10.3684L6.81781 10.3683C6.77563 10.3393 6.73278 10.3099 6.68909 10.2803C6.38517 10.1873 6.06253 10.1389 5.73203 10.1347H5.69215C4.17318 10.1347 2.84151 11.0537 2.84151 12.1026C2.84151 13.2445 3.98285 14.137 5.43899 14.137C7.35976 14.137 8.33313 13.4735 8.33313 12.1685C8.33313 12.0452 8.31863 11.9171 8.28782 11.7884C8.15841 11.284 7.69684 10.9685 6.99867 10.4913L6.99059 10.4857ZM5.91493 6.50523H5.91372H5.89983C4.93491 6.47501 3.9706 5.33488 3.7978 4.0153C3.70173 3.27756 3.85701 2.61414 4.22376 2.19543C4.46001 1.92475 4.77117 1.78094 5.1198 1.78094L5.15907 1.78215C6.14453 1.81055 7.0889 2.9102 7.2611 4.231C7.35898 4.96994 7.19404 5.66599 6.82184 6.09014C6.58439 6.36203 6.27806 6.50523 5.91493 6.50523Z" fill="#222222"/>
</svg>
