<svg width="18" height="19" viewBox="0 0 18 19" fill="none" xmlns="http://www.w3.org/2000/svg">
<path d="M4.25 18.2656H0.5V5.14055H4.25V18.2656ZM2.49123 4.3362C1.51998 4.3362 0.734379 3.54868 0.734379 2.57743C0.734379 1.60618 1.52189 0.818665 2.49123 0.818665C3.46249 0.820515 4.25 1.60803 4.25 2.57743C4.25 3.54868 3.46249 4.3362 2.49123 4.3362ZM17.375 18.2656H13.625V10.1506C13.625 9.19993 13.3531 8.53435 12.185 8.53435C10.2481 8.53435 9.87497 10.1506 9.87497 10.1506V18.2656H6.12497V5.14055H9.87497V6.39491C10.4112 5.98431 11.7499 5.1424 13.625 5.1424C14.84 5.1424 17.375 5.8699 17.375 10.2649V18.2656Z" fill="#222222"/>
</svg>
